<svg id="Layer_1" data-name="Layer 1" xmlns="http://www.w3.org/2000/svg" viewBox="0 0 557.79988 95.8479"><defs><style>.cls-1{fill:#033;}.cls-2{fill:#9c6;}</style></defs><title>domenebi-logo-curved (1)</title><path class="cls-1" d="M694.12817,303.82156a24.81188,24.81188,0,0,1-7.38086,4.70893,22.49362,22.49362,0,0,1-8.68469,1.70248,25.32326,25.32326,0,0,1-17.63214-7.03281,24.74937,24.74937,0,0,1-5.442-7.76577,23.43314,23.43314,0,0,1-2.01313-9.729,25.25713,25.25713,0,0,1,3.08118-12.11471,24.46851,24.46851,0,0,1,3.5791-4.94541,22.55259,22.55259,0,0,1,4.70892-3.85168,23.24636,23.24636,0,0,1,5.6659-2.4979,22.84675,22.84675,0,0,1,6.44879-.89462,21.98827,21.98827,0,0,1,6.00153.82041,23.39858,23.39858,0,0,1,5.46746,2.31082,23.70311,23.70311,0,0,1,4.67139,3.5784,24.10922,24.10922,0,0,1,3.65332,4.56039,22.0414,22.0414,0,0,1,2.37323,5.2934,20.22859,20.22859,0,0,1,.83276,5.80249c0,1.29211-.01239,2.34829-.04986,3.16861a3.56459,3.56459,0,0,1-.58392,1.9508,2.796,2.796,0,0,1-1.72742,1.00629,16.9383,16.9383,0,0,1-3.566.28571h-26.839a9.27609,9.27609,0,0,0,1.516,3.9884,9.41989,9.41989,0,0,0,2.622,2.54718,10.50338,10.50338,0,0,0,3.16858,1.36691,13.36777,13.36777,0,0,0,3.168.40979,14.23961,14.23961,0,0,0,2.75861-.28567,19.76124,19.76124,0,0,0,2.74627-.74552,15.54556,15.54556,0,0,0,2.423-1.08059,8.00968,8.00968,0,0,0,1.76434-1.28009,7.87861,7.87861,0,0,1,1.03119-.733,1.73762,1.73762,0,0,1,1.90088.09919,7.82342,7.82342,0,0,1,1.1311.96942l3.95093,4.47308a2.47931,2.47931,0,0,1,.52209.86969,2.95886,2.95886,0,0,1,.1117.8078,2.0481,2.0481,0,0,1-.40991,1.2796,4.70039,4.70039,0,0,1-.96943.957m-62.66095,3.98832a6.61279,6.61279,0,0,0,.33558-1.64011q.07405-.89462.07428-1.8635v-.5097a1.7463,1.7463,0,0,0-.01246-.27319,1.75368,1.75368,0,0,1-.02435-.2858v-.4971q-1.08178,1.15557-2.19965,2.27389a14.80944,14.80944,0,0,1-2.47241,1.98819,12.7323,12.7323,0,0,1-3.08178,1.4162,13.27248,13.27248,0,0,1-3.98841.54651,24.86746,24.86746,0,0,1-9.31921-1.71438,22.25874,22.25874,0,0,1-7.41773-4.79621,21.65556,21.65556,0,0,1-4.88348-7.35589,24.70165,24.70165,0,0,1-1.75177-9.43091,25.92088,25.92088,0,0,1,1.75177-9.56742,23.77245,23.77245,0,0,1,4.88348-7.75338,22.43638,22.43638,0,0,1,7.41773-5.1568,23.12492,23.12492,0,0,1,9.31921-1.8635,15.91344,15.91344,0,0,1,4.21228.52161,14.84841,14.84841,0,0,1,3.4917,1.44168,15.43742,15.43742,0,0,1,2.88233,2.1492,25.47713,25.47713,0,0,1,2.423,2.6221l1.04382-3.3551c.149-.4224.28571-.8198.40979-1.16791a2.86941,2.86941,0,0,1,.4972-.88208,1.89612,1.89612,0,0,1,.758-.54712,3.34708,3.34708,0,0,1,1.21777-.18588h5.56672a3.21482,3.21482,0,0,1,1.05621.18588,3.34593,3.34593,0,0,1,.94391.52213,2.49527,2.49527,0,0,1,.69617.85717,2.63221,2.63221,0,0,1,.2608,1.19291v37.94741a26.66986,26.66986,0,0,1-1.90088,10.36289A21.8004,21.8004,0,0,1,630.61,325.44138a28.14249,28.14249,0,0,1-9.69159,1.64019,28.72825,28.72825,0,0,1-4.32459-.36,31.96171,31.96171,0,0,1-4.59723-1.05622,27.48759,27.48759,0,0,1-4.43567-1.8142A18.19107,18.19107,0,0,1,603.771,321.304a3.77653,3.77653,0,0,1-.94452-1.03132,2.46785,2.46785,0,0,1-.3974-1.3544,3.55756,3.55756,0,0,1,.70813-1.9757l3.54156-4.883a5.07869,5.07869,0,0,1,.96894-.84531,1.793,1.793,0,0,1,.96942-.27319,3.79868,3.79868,0,0,1,2.05.89459,7.46839,7.46839,0,0,0,2.14978,1.4292,14.85707,14.85707,0,0,0,2.49738.85721,15.30583,15.30583,0,0,0,2.53473.40991c.83227.06238,1.57782.09979,2.249.09979a14.72751,14.72751,0,0,0,3.50415-.44729,13.8601,13.8601,0,0,0,3.41693-1.3295,11.61037,11.61037,0,0,0,2.79548-2.1373A6.69578,6.69578,0,0,0,631.46722,307.80988ZM610.145,285.74277a13.69773,13.69773,0,0,0,.77051,4.63461,10.94266,10.94266,0,0,0,2.17468,3.71509,10.15362,10.15362,0,0,0,3.41687,2.4599,10.6415,10.6415,0,0,0,4.41132.89459,12.06242,12.06242,0,0,0,4.49737-.8447,11.30651,11.30651,0,0,0,3.66583-2.3233,11.6986,11.6986,0,0,0,2.52222-3.50418,11.35893,11.35893,0,0,0,1.05615-4.3613v-1.23031a11.39344,11.39344,0,0,0-1.05615-4.3115,12.3551,12.3551,0,0,0-2.52222-3.5784,11.879,11.879,0,0,0-3.66583-2.46051,11.199,11.199,0,0,0-4.49737-.90649,10.10167,10.10167,0,0,0-4.41132.94391,10.59711,10.59711,0,0,0-3.41687,2.55969,11.29565,11.29565,0,0,0-2.17468,3.765A13.555,13.555,0,0,0,610.145,285.74277Zm-433.25972,19.11a23.42491,23.42491,0,0,1-2.28639,2.00071,19.87864,19.87864,0,0,1-2.79561,1.77679,16.94439,16.94439,0,0,1-3.24339,1.26709,13.6217,13.6217,0,0,1-3.67762.48471,22.66635,22.66635,0,0,1-9.33169-1.90091,22.36781,22.36781,0,0,1-7.3434-5.20669,23.98984,23.98984,0,0,1-4.8087-7.77829,27.55956,27.55956,0,0,1,0-19.27161,24.01193,24.01193,0,0,1,4.8087-7.7533,22.11914,22.11914,0,0,1,7.3434-5.18121,22.85376,22.85376,0,0,1,9.33169-1.889,18.38511,18.38511,0,0,1,3.75251.36063,13.00727,13.00727,0,0,1,5.6659,2.63388,20.14345,20.14345,0,0,1,2.2116,2.0506V250.90158a2.93185,2.93185,0,0,1,.733-2.0126,2.74794,2.74794,0,0,1,2.1747-.82041h8.38721a2.94209,2.94209,0,0,1,1.03118.21149,3.385,3.385,0,0,1,.9814.5715,2.99823,2.99823,0,0,1,.733.89463,2.40273,2.40273,0,0,1,.2738,1.15539v55.74048q0,2.87-3.01939,2.8703h-7.306a2.872,2.872,0,0,1-1.156-.18649,1.83233,1.83233,0,0,1-.6832-.54648,3.77382,3.77382,0,0,1-.5096-.89462c-.1491-.3606-.33509-.77048-.559-1.24271Zm-21.8069-18.9859a13.52953,13.52953,0,0,0,.7704,4.59729,10.76612,10.76612,0,0,0,2.17481,3.70261,10.32126,10.32126,0,0,0,7.82749,3.39249,11.81792,11.81792,0,0,0,4.4981-.85779,11.40224,11.40224,0,0,0,3.66569-2.36072,11.70729,11.70729,0,0,0,3.57851-7.95227v-.52161a11.91724,11.91724,0,0,0-7.09509-10.9219,11.34119,11.34119,0,0,0-4.64721-.94449,10.102,10.102,0,0,0-4.4107.94449,10.36339,10.36339,0,0,0-3.41679,2.59658,11.54217,11.54217,0,0,0-2.17481,3.78992A13.5377,13.5377,0,0,0,155.0784,285.86688Zm44.2097,0a24.78667,24.78667,0,0,1,3.34261-12.47522,24.31255,24.31255,0,0,1,3.80179-4.92038,23.584,23.584,0,0,1,4.9329-3.78991,24.91326,24.91326,0,0,1,12.4503-3.28031,24.35843,24.35843,0,0,1,17.284,7.07022,24.63429,24.63429,0,0,1,5.21851,7.7533,24.15958,24.15958,0,0,1,1.91339,9.6423,24.42521,24.42521,0,0,1-.8696,6.58548,24.88741,24.88741,0,0,1-2.4605,5.87732,24.30422,24.30422,0,0,1-14.57521,11.19519,24.43065,24.43065,0,0,1-6.51059.85721,24.89678,24.89678,0,0,1-6.573-.85721,24.34561,24.34561,0,0,1-5.87731-2.448,24.16506,24.16506,0,0,1-8.73469-8.74719,24.88243,24.88243,0,0,1-2.46051-5.87732A24.42881,24.42881,0,0,1,199.2881,285.86688Zm13.6057,0a13.51447,13.51447,0,0,0,.77051,4.59729,10.93771,10.93771,0,0,0,2.16169,3.70261,10.17464,10.17464,0,0,0,3.39251,2.48538,10.63544,10.63544,0,0,0,4.48548.90711,10.25676,10.25676,0,0,0,4.38581-.90711,9.87383,9.87383,0,0,0,3.31759-2.48538,10.781,10.781,0,0,0,2.08751-3.70261,14.818,14.818,0,0,0,0-9.13269,11.56682,11.56682,0,0,0-2.08751-3.78992,9.70633,9.70633,0,0,0-7.7034-3.54107,10.27879,10.27879,0,0,0-4.48548.94449,10.149,10.149,0,0,0-3.39251,2.59658,11.73585,11.73585,0,0,0-2.16169,3.78992A13.52227,13.52227,0,0,0,212.8938,285.86688Zm338.243-20.8125a3.226,3.226,0,0,1,.6712-2.05,2.48536,2.48536,0,0,1,2.08741-.85778h8.53631a2.64722,2.64722,0,0,1,.96887.199,3.2966,3.2966,0,0,1,.96943.59641,3.93756,3.93756,0,0,1,.7705.91958,2.25085,2.25085,0,0,1,.31061,1.19281v41.56269a2.77,2.77,0,0,1-.7829,2.13729,3.169,3.169,0,0,1-2.23651.73313h-8.53631q-2.75868,0-2.75861-2.87042Zm-43.38937,41.58768c-.22391.47223-.4105.88211-.5596,1.24271a3.76692,3.76692,0,0,1-.49662.89462,1.86889,1.86889,0,0,1-.69619.54648,2.75057,2.75057,0,0,1-1.118.18649h-7.38082q-2.98229,0-2.98209-2.8703V250.939a2.71809,2.71809,0,0,1,.24841-1.15539,2.91364,2.91364,0,0,1,.63379-.89459,2.81128,2.81128,0,0,1,.89459-.57151,2.59123,2.59123,0,0,1,.98191-.21139h8.46139a3.02023,3.02023,0,0,1,2.2366.82028,2.73406,2.73406,0,0,1,.82032,2.0126v15.50721a19.28636,19.28636,0,0,1,2.2366-2.0506,13.47,13.47,0,0,1,2.5965-1.59021,14.83,14.83,0,0,1,3.06927-1.03119,17.18776,17.18776,0,0,1,3.7276-.37311,22.9127,22.9127,0,0,1,9.34412,1.889,22.11945,22.11945,0,0,1,7.3435,5.18121,24.0004,24.0004,0,0,1,4.80811,7.7533,27.73867,27.73867,0,0,1,0,19.27161,23.97839,23.97839,0,0,1-4.80811,7.77829,22.36812,22.36812,0,0,1-7.3435,5.20669,22.72474,22.72474,0,0,1-9.34412,1.90091,13.39453,13.39453,0,0,1-3.62829-.48471,17.50725,17.50725,0,0,1-3.26777-1.26709,19.3162,19.3162,0,0,1-2.808-1.77679,23.62067,23.62067,0,0,1-2.29892-2.00071ZM530.225,285.86688a13.529,13.529,0,0,0-.758-4.5354,11.56756,11.56756,0,0,0-2.18719-3.78992,10.39573,10.39573,0,0,0-3.39191-2.59658,10.09638,10.09638,0,0,0-4.43567-.94449,11.19367,11.19367,0,0,0-4.59784.94449,11.58584,11.58584,0,0,0-3.71506,2.59658,12.27164,12.27164,0,0,0-2.47232,3.78992,11.55679,11.55679,0,0,0-.91958,4.5354v.52161a11.856,11.856,0,0,0,3.57849,7.95227,11.48527,11.48527,0,0,0,3.65268,2.36072,11.65049,11.65049,0,0,0,4.47363.85779,10.21809,10.21809,0,0,0,7.82758-3.39249,10.78985,10.78985,0,0,0,2.18719-3.70261A13.52659,13.52659,0,0,0,530.225,285.86688ZM481.3931,303.82156a24.81185,24.81185,0,0,1-7.3808,4.70893,22.49449,22.49449,0,0,1-8.68479,1.70248,25.32359,25.32359,0,0,1-17.63211-7.03281,24.74936,24.74936,0,0,1-5.44189-7.76577,23.43318,23.43318,0,0,1-2.01321-9.729,25.25827,25.25827,0,0,1,3.08129-12.11471,24.46538,24.46538,0,0,1,3.579-4.94541,22.55325,22.55325,0,0,1,4.7089-3.85168,23.249,23.249,0,0,1,5.66589-2.4979,22.84706,22.84706,0,0,1,6.44882-.89462,21.98805,21.98805,0,0,1,6.0015.82041,23.39852,23.39852,0,0,1,5.4675,2.31082,23.70748,23.70748,0,0,1,4.67148,3.5784,24.1179,24.1179,0,0,1,3.65332,4.56039,22.03672,22.03672,0,0,1,2.3731,5.2934,20.22765,20.22765,0,0,1,.83289,5.80249c0,1.29211-.01251,2.34829-.0499,3.16861a3.56377,3.56377,0,0,1-.584,1.9508,2.79571,2.79571,0,0,1-1.72739,1.00629,16.93823,16.93823,0,0,1-3.566.28571h-26.839a9.27609,9.27609,0,0,0,1.516,3.9884,9.42284,9.42284,0,0,0,2.622,2.54718,10.50591,10.50591,0,0,0,3.16861,1.36691,13.36818,13.36818,0,0,0,3.168.40979,14.24051,14.24051,0,0,0,2.7587-.28567,19.75887,19.75887,0,0,0,2.74618-.74552,15.55,15.55,0,0,0,2.4231-1.08059,8.00917,8.00917,0,0,0,1.76422-1.28009,7.87932,7.87932,0,0,1,1.03128-.733,1.73767,1.73767,0,0,1,1.90091.09919,7.82493,7.82493,0,0,1,1.131.96942l3.9509,4.47308a2.47872,2.47872,0,0,1,.52219.86969,2.9577,2.9577,0,0,1,.11169.8078,2.04881,2.04881,0,0,1-.40988,1.2796A4.70253,4.70253,0,0,1,481.3931,303.82156Zm-17.92969-31.0513a7.09722,7.09722,0,0,0-2.808.57151,10.67949,10.67949,0,0,0-2.5597,1.5534,13.2852,13.2852,0,0,0-2.1373,2.1991,13.54426,13.54426,0,0,0-1.5534,2.49789h19.04831a21.90853,21.90853,0,0,0-1.68952-2.6839,11.47716,11.47716,0,0,0-2.088-2.1622,8.9911,8.9911,0,0,0-2.68381-1.45358A10.81479,10.81479,0,0,0,463.46341,272.77026Zm-74.6265-9.98977a2.32538,2.32538,0,0,1,1.03119-.52222,5.01989,5.01989,0,0,1,1.0188-.11169h5.62839a2.56081,2.56081,0,0,1,1.156.23639,2.49859,2.49859,0,0,1,.81979.6582,3.40546,3.40546,0,0,1,.54712.91961c.13659.34809.2608.7081.38489,1.08109l.78289,3.26779a9.0658,9.0658,0,0,1,1.81421-2.3732A13.74484,13.74484,0,0,1,405.114,263.7a20.03364,20.03364,0,0,1,4.2616-1.65262,20.80654,20.80654,0,0,1,5.40509-.6463,17.00864,17.00864,0,0,1,7.59229,1.64011,16.71957,16.71957,0,0,1,5.66592,4.4606,19.59624,19.59624,0,0,1,3.541,6.598,26.26806,26.26806,0,0,1,1.20529,8.06452v24.4154a3.22538,3.22538,0,0,1-.60889,2.1373,2.44239,2.44239,0,0,1-1.96329.73309h-8.6105a3.33641,3.33641,0,0,1-2.19971-.5466,2.80694,2.80694,0,0,1-.5964-2.09988V282.53677a6.65269,6.65269,0,0,0-.72049-3.0444,8.89418,8.89418,0,0,0-1.92591-2.53479,9.17425,9.17425,0,0,0-2.69629-1.72681,7.90858,7.90858,0,0,0-3.08132-.63379,6.92447,6.92447,0,0,0-2.73368.59638,9.17513,9.17513,0,0,0-2.5722,1.65262,9.75551,9.75551,0,0,0-1.97571,2.49728,7.3333,7.3333,0,0,0-.919,3.1192v24.2294a3.51473,3.51473,0,0,1-.23639,1.26712,2.02519,2.02519,0,0,1-.73309.96949,3.40432,3.40432,0,0,1-.907.40991,3.99978,3.99978,0,0,1-.9939.11169h-8.4245a2.624,2.624,0,0,1-3.0195-2.87039V264.89276a2.73767,2.73767,0,0,1,.32321-1.30447,2.37923,2.37923,0,0,1,.8696-.91953ZM374.7464,303.82156a24.81265,24.81265,0,0,1-7.38089,4.70893,22.49381,22.49381,0,0,1-8.68472,1.70248,25.32355,25.32355,0,0,1-17.63208-7.03281,24.74956,24.74956,0,0,1-5.442-7.76577,23.43359,23.43359,0,0,1-2.01309-9.729,25.25684,25.25684,0,0,1,3.0812-12.11471,24.469,24.469,0,0,1,3.57911-4.94541,22.54985,22.54985,0,0,1,4.70889-3.85168,23.24679,23.24679,0,0,1,5.66589-2.4979,22.84706,22.84706,0,0,1,6.44882-.89462,21.98816,21.98816,0,0,1,6.0015.82041,23.40013,23.40013,0,0,1,5.4675,2.31082,23.70748,23.70748,0,0,1,4.67148,3.5784,24.11251,24.11251,0,0,1,3.6532,4.56039,22.03933,22.03933,0,0,1,2.37319,5.2934,20.22621,20.22621,0,0,1,.83283,5.80249c0,1.29211-.01242,2.34829-.0499,3.16861a3.56476,3.56476,0,0,1-.58392,1.9508,2.79594,2.79594,0,0,1-1.72739,1.00629,16.939,16.939,0,0,1-3.566.28571H347.311a9.2761,9.2761,0,0,0,1.516,3.9884,9.41975,9.41975,0,0,0,2.622,2.54718,10.50349,10.50349,0,0,0,3.1686,1.36691,13.36747,13.36747,0,0,0,3.168.40979,14.24138,14.24138,0,0,0,2.7587-.28567,19.76392,19.76392,0,0,0,2.74619-.74552,15.54538,15.54538,0,0,0,2.423-1.08059,8.00776,8.00776,0,0,0,1.76431-1.28009,7.87928,7.87928,0,0,1,1.03119-.733,1.73783,1.73783,0,0,1,1.901.09919,7.82812,7.82812,0,0,1,1.131.96942l3.95092,4.47308a2.47829,2.47829,0,0,1,.5221.86969,2.95885,2.95885,0,0,1,.11169.8078,2.048,2.048,0,0,1-.40991,1.2796A4.70168,4.70168,0,0,1,374.7464,303.82156Zm-17.92969-31.0513a7.0969,7.0969,0,0,0-2.808.57151,10.67748,10.67748,0,0,0-2.55969,1.5534,13.2808,13.2808,0,0,0-2.1373,2.1991,13.54433,13.54433,0,0,0-1.55341,2.49789h19.04831a21.92056,21.92056,0,0,0-1.68951-2.6839,11.48312,11.48312,0,0,0-2.088-2.1622,8.99336,8.99336,0,0,0-2.6838-1.45358A10.81528,10.81528,0,0,0,356.81671,272.77026ZM256.6188,262.78049a2.326,2.326,0,0,1,1.03119-.52222,5.02034,5.02034,0,0,1,1.0188-.11169h5.62851a2.56028,2.56028,0,0,1,1.15589.23639,2.499,2.499,0,0,1,.81982.6582,3.40615,3.40615,0,0,1,.54709.91961c.1366.34809.2608.7081.38489,1.08109l.783,3.26779a11.72143,11.72143,0,0,1,1.60269-2.3732A11.318,11.318,0,0,1,272.23709,263.7a15.76593,15.76593,0,0,1,3.8273-1.65262,18.48512,18.48512,0,0,1,5.1937-.6463,18.17861,18.17861,0,0,1,4.27462.45981,13.2146,13.2146,0,0,1,3.50358,1.3793,13.4982,13.4982,0,0,1,2.8829,2.23661,20.87882,20.87882,0,0,1,2.4599,3.01941,11.84686,11.84686,0,0,1,2.1124-2.41062,16.77329,16.77329,0,0,1,3.3301-2.31131,21.93416,21.93416,0,0,1,4.324-1.70187,18.64249,18.64249,0,0,1,5.06949-.67133,15.93154,15.93154,0,0,1,7.41821,1.64011,15.03092,15.03092,0,0,1,5.2804,4.4606,19.5632,19.5632,0,0,1,3.14361,6.598,30.17471,30.17471,0,0,1,1.04428,8.06452v24.4154a3.22555,3.22555,0,0,1-.60888,2.1373,2.4431,2.4431,0,0,1-1.96332.73309h-8.611a3.33359,3.33359,0,0,1-2.19919-.5466,2.80693,2.80693,0,0,1-.59641-2.09988V282.16428a8.63249,8.63249,0,0,0-.49719-2.98261,7.59678,7.59678,0,0,0-1.40372-2.41,6.23726,6.23726,0,0,0-2.17468-1.6033,6.91188,6.91188,0,0,0-2.85791-.57139,6.58264,6.58264,0,0,0-2.6839.5589,7.13453,7.13453,0,0,0-2.23651,1.541,7.38327,7.38327,0,0,0-1.54089,2.38559,8.01493,8.01493,0,0,0-.5839,3.08182v24.4154a3.22267,3.22267,0,0,1-.60891,2.1373,2.44248,2.44248,0,0,1-1.96329.73309h-8.6105a3.33313,3.33313,0,0,1-2.1991-.5466,2.80433,2.80433,0,0,1-.59641-2.09988V282.16428a9.26112,9.26112,0,0,0-.4598-2.98261,7.23922,7.23922,0,0,0-1.34189-2.41,6.16624,6.16624,0,0,0-2.12491-1.6033,6.975,6.975,0,0,0-5.44248-.03739,7.49662,7.49662,0,0,0-2.31082,1.52838,8.61952,8.61952,0,0,0-1.715,2.3732,7.94272,7.94272,0,0,0-.80729,3.05692v24.60238a3.51456,3.51456,0,0,1-.23642,1.26712,2.02541,2.02541,0,0,1-.733.96949,3.40561,3.40561,0,0,1-.9071.40991,3.99946,3.99946,0,0,1-.99378.11169h-8.42462a2.62393,2.62393,0,0,1-3.01948-2.87039V264.89276a2.73777,2.73777,0,0,1,.32319-1.30447,2.38,2.38,0,0,1,.8696-.91953Zm419.57969,9.98977a7.09691,7.09691,0,0,0-2.808.57151,10.67787,10.67787,0,0,0-2.55969,1.5534,13.28138,13.28138,0,0,0-2.13733,2.1991,13.54587,13.54587,0,0,0-1.5534,2.49789h19.04821a21.90677,21.90677,0,0,0-1.68939-2.6839,11.48322,11.48322,0,0,0-2.088-2.1622,8.9935,8.9935,0,0,0-2.68378-1.45358A10.81511,10.81511,0,0,0,676.19849,272.77026Z" transform="translate(-141.6591 -248.06857)"/><path class="cls-2" d="M157.9527,333.32968a1.35155,1.35155,0,0,1-.7206-.9689,1.50343,1.50343,0,0,1,.3107-1.1554l5.5168-8.87191a1.42592,1.42592,0,0,1,1.0063-.67121,1.54283,1.54283,0,0,1,1.1185.29822,56.5636,56.5636,0,0,0,14.2022,6.412,57.84427,57.84427,0,0,0,15.544,2.05,57.235,57.235,0,0,0,15.5316-2.08753,54.23924,54.23924,0,0,0,14.25209-6.37448,1.40218,1.40218,0,0,1,2.08741.373l5.5168,8.87191a1.387,1.387,0,0,1,.3356,1.1554,1.4229,1.4229,0,0,1-.7455.9689,68.21228,68.21228,0,0,1-17.42059,7.86559,71.59536,71.59536,0,0,1-39.10221,0,68.29379,68.29379,0,0,1-17.4331-7.86559m417.041-34.5776a1.69621,1.69621,0,0,1,.40992-1.19281,1.61791,1.61791,0,0,1,1.24267-.4473h9.89063a1.81994,1.81994,0,0,1,1.18036.4473,1.47378,1.47378,0,0,1,.5465,1.19281v9.02038a1.83217,1.83217,0,0,1-.43481,1.19281,1.56314,1.56314,0,0,1-1.29205.52222H576.6463c-1.10608,0-1.65259-.5715-1.65259-1.715Z" transform="translate(-141.6591 -248.06857)"/></svg>