<?xml version="1.0" encoding="UTF-8"?>
<svg width="700pt" height="700pt" version="1.1" viewBox="0 0 700 700" xmlns="http://www.w3.org/2000/svg">
 <g>
  <path d="m110 140h282.84c5.8633 23.035 21.711 42.246 43.211 52.379 21.496 10.137 46.402 10.137 67.898 0 21.5-10.133 37.348-29.344 43.211-52.379h42.84c7.1445 0 13.746-3.8125 17.32-10 3.5742-6.1875 3.5742-13.812 0-20-3.5742-6.1875-10.176-10-17.32-10h-42.84c-5.8633-23.035-21.711-42.246-43.211-52.379-21.496-10.137-46.402-10.137-67.898 0-21.5 10.133-37.348 29.344-43.211 52.379h-282.84c-7.1445 0-13.746 3.8125-17.32 10-3.5742 6.1875-3.5742 13.812 0 20 3.5742 6.1875 10.176 10 17.32 10zm360-60c10.609 0 20.781 4.2148 28.285 11.715 7.5 7.5039 11.715 17.676 11.715 28.285s-4.2148 20.781-11.715 28.285c-7.5039 7.5-17.676 11.715-28.285 11.715s-20.781-4.2148-28.285-11.715c-7.5-7.5039-11.715-17.676-11.715-28.285s4.2148-20.781 11.715-28.285c7.5039-7.5 17.676-11.715 28.285-11.715z"/>
  <path d="m590 260h-282.84c-5.8633-23.035-21.711-42.246-43.211-52.379-21.496-10.137-46.402-10.137-67.898 0-21.5 10.133-37.348 29.344-43.211 52.379h-42.84c-7.1445 0-13.746 3.8125-17.32 10-3.5742 6.1875-3.5742 13.812 0 20 3.5742 6.1875 10.176 10 17.32 10h42.84c5.8633 23.035 21.711 42.246 43.211 52.379 21.496 10.137 46.402 10.137 67.898 0 21.5-10.133 37.348-29.344 43.211-52.379h282.84c7.1445 0 13.746-3.8125 17.32-10 3.5742-6.1875 3.5742-13.812 0-20-3.5742-6.1875-10.176-10-17.32-10zm-360 60c-10.609 0-20.781-4.2148-28.285-11.715-7.5-7.5039-11.715-17.676-11.715-28.285s4.2148-20.781 11.715-28.285c7.5039-7.5 17.676-11.715 28.285-11.715s20.781 4.2148 28.285 11.715c7.5 7.5039 11.715 17.676 11.715 28.285s-4.2148 20.781-11.715 28.285c-7.5039 7.5-17.676 11.715-28.285 11.715z"/>
  <path d="m590 420h-42.84c-5.8633-23.035-21.711-42.246-43.211-52.379-21.496-10.137-46.402-10.137-67.898 0-21.5 10.133-37.348 29.344-43.211 52.379h-282.84c-7.1445 0-13.746 3.8125-17.32 10-3.5742 6.1875-3.5742 13.812 0 20 3.5742 6.1875 10.176 10 17.32 10h282.84c5.8633 23.035 21.711 42.246 43.211 52.379 21.496 10.137 46.402 10.137 67.898 0 21.5-10.133 37.348-29.344 43.211-52.379h42.84c7.1445 0 13.746-3.8125 17.32-10 3.5742-6.1875 3.5742-13.812 0-20-3.5742-6.1875-10.176-10-17.32-10zm-120 60c-10.609 0-20.781-4.2148-28.285-11.715-7.5-7.5039-11.715-17.676-11.715-28.285s4.2148-20.781 11.715-28.285c7.5039-7.5 17.676-11.715 28.285-11.715s20.781 4.2148 28.285 11.715c7.5 7.5039 11.715 17.676 11.715 28.285s-4.2148 20.781-11.715 28.285c-7.5039 7.5-17.676 11.715-28.285 11.715z"/>
 </g>
</svg>
